# Aspose.3D Wavefront OBJ Exporter
# Copyright 2004-2023 Aspose Pty Ltd.
# File created: 5/11/2023 10:03:11 AM


#
# object obj_54034563
#

v -0.00999999977648258 0 5.551115123125783E-17
v -0.00978601723909378 -0.0020576377864927 -0.05999999865889549
v -0.00978601723909378 -0.0020576377864927 5.551115123125783E-17
v -0.00920867174863815 -0.00389876379631459 -0.05999999865889549
v -0.00920867174863815 -0.00389876379631459 0
v -0.00817751884460449 -0.00575570901855826 -0.05999999865889549
v -0.00817751884460449 -0.00575570901855826 -5.551115123125783E-17
v -0.00682189781218767 -0.00731175160035491 -0.05999999865889549
v -0.00682189781218767 -0.00731175160035491 -5.551115123125783E-17
v -0.00518162967637181 -0.00855281949043273 -0.05999999865889549
v -0.00518162967637181 -0.00855281949043273 -1.1102230246251565E-16
v -0.0033658891916275 -0.00941651687026023 -0.05999999865889549
v -0.0033658891916275 -0.00941651687026023 -1.1102230246251565E-16
v -0.00146390183363109 -0.00989226903766393 -0.05999999865889549
v -0.00146390183363109 -0.00989226903766393 -1.6653345369377348E-16
v 0.00056257116375491 -0.00998416356742382 -0.05999999865889549
v 0.00056257116375491 -0.00998416356742382 -1.6653345369377348E-16
v 0.00264093419536948 -0.00964497122913599 -0.05999999865889549
v 0.00264093419536948 -0.00964497122913599 -1.6653345369377348E-16
v 0.00464254058897495 -0.00885702110826969 -0.05999999865889549
v 0.00464254058897495 -0.00885702110826969 -1.6653345369377348E-16
v 0.00640006503090262 -0.00768369482830166 -0.05999999865889549
v 0.00640006503090262 -0.00768369482830166 -1.6653345369377348E-16
v 0.00768369482830166 -0.00640006503090262 -0.05999999865889549
v 0.00768369482830166 -0.00640006503090262 -1.6653345369377348E-16
v 0.00882610492408275 -0.00470104999840259 -0.05999999865889549
v 0.00882610492408275 -0.00470104999840259 -1.6653345369377348E-16
v 0.00958413630723953 -0.00285382638685405 -0.05999999865889549
v 0.00958413630723953 -0.00285382638685405 -1.1102230246251565E-16
v 0.00995552726089954 -0.00094206328503787 -0.05999999865889549
v 0.00995552726089954 -0.00094206328503787 -1.1102230246251565E-16
v 0.00995552726089954 0.00094206328503787 -0.05999999865889549
v 0.00995552726089954 0.00094206328503787 -5.551115123125783E-17
v 0.00959145929664373 0.00282911793328821 -0.05999999865889549
v 0.00959145929664373 0.00282911793328821 -5.551115123125783E-17
v 0.0087680434808135 0.00480847246944904 -0.05999999865889549
v 0.0087680434808135 0.00480847246944904 0
v 0.00756404222920537 0.00654104445129633 -0.05999999865889549
v 0.00756404222920537 0.00654104445129633 5.551115123125783E-17
v 0.00605962052941322 0.00795493554323911 -0.05999999865889549
v 0.00605962052941322 0.00795493554323911 1.1102230246251565E-16
v 0.00432099588215351 0.00901825912296772 -0.05999999865889549
v 0.00432099588215351 0.00901825912296772 1.1102230246251565E-16
v 0.00245355209335684 0.00969433225691318 -0.05999999865889549
v 0.00245355209335684 0.00969433225691318 1.6653345369377348E-16
v 0.000538072490599 0.00998551305383443 -0.05999999865889549
v 0.000538072490599 0.00998551305383443 1.6653345369377348E-16
v -0.00154170091263949 0.00988044310361146 -0.05999999865889549
v -0.00154170091263949 0.00988044310361146 1.6653345369377348E-16
v -0.00340704130940139 0.00940170604735612 -0.05999999865889549
v -0.00340704130940139 0.00940170604735612 1.6653345369377348E-16
v -0.0053235781379044 0.00846519414335489 -0.05999999865889549
v -0.0053235781379044 0.00846519414335489 1.6653345369377348E-16
v -0.00697371363639831 0.00716709997504949 -0.05999999865889549
v -0.00697371363639831 0.00716709997504949 1.6653345369377348E-16
v -0.00735509116202592 0.00677514867857098 -0.05999999865889549
v -0.00735509116202592 0.00677514867857098 1.6653345369377348E-16
v -0.00858317781239748 0.00513118458911776 -0.05999999865889549
v -0.00858317781239748 0.00513118458911776 1.6653345369377348E-16
v -0.00943567603826522 0.00331179914064705 -0.05999999865889549
v -0.00943567603826522 0.00331179914064705 1.1102230246251565E-16
v -0.00990030914545059 0.00140850408934056 -0.05999999865889549
v -0.00990030914545059 0.00140850408934056 1.1102230246251565E-16
v -0.00999999977648258 1.0200174038743626E-15 -0.05999999865889549
v -0.0062296106480062 0.0062296106480062 1.6653345369377348E-16
v -0.00743858888745307 0.00472053932026028 1.6653345369377348E-16
v -0.00827409885823726 0.00302578811533749 1.1102230246251565E-16
v -0.00872158072888851 0.001245042309165 1.1102230246251565E-16
v -0.00880999956279993 4.336808689942018E-19 5.551115123125783E-17
v -0.00859609618782997 -0.00192956556566059 5.551115123125783E-17
v -0.00802008341997861 -0.00364614254795014 0
v -0.00699578830972313 -0.00535490829497575 -5.551115123125783E-17
v -0.0056565380655229 -0.00675423396751284 -5.551115123125783E-17
v -0.00405793963000178 -0.00781979691237211 -1.1102230246251565E-16
v -0.00231840438209474 -0.00849947612732648 -1.1102230246251565E-16
v -0.0005266664084047 -0.00879424344748258 -1.6653345369377348E-16
v 0.00142371701076626 -0.00869420077651739 -1.6653345369377348E-16
v 0.00316712656058371 -0.0082210348919034 -1.6653345369377348E-16
v 0.0049416827969253 -0.00729354983195662 -1.6653345369377348E-16
v 0.0062296106480062 -0.0062296106480062 -1.6653345369377348E-16
v 0.00743855768814683 -0.00472058914601802 -1.6653345369377348E-16
v 0.0082740793004632 -0.00302584143355488 -1.1102230246251565E-16
v 0.00872157327830791 -0.00124509702436625 -1.1102230246251565E-16
v 0.00878532603383064 0.00065889523830264 -5.551115123125783E-17
v 0.00841191876679658 0.00261834287084639 0
v 0.00759546179324388 0.00446374900639057 0
v 0.00640846183523535 0.00604547094553709 5.551115123125783E-17
v 0.00566228758543729 0.00674941483885049 5.551115123125783E-17
v 0.00406767986714839 0.00781473517417907 1.1102230246251565E-16
v 0.00232866639271378 0.00849667098373174 1.1102230246251565E-16
v 0.00053699658019468 0.00879361853003501 1.6653345369377348E-16
v -0.00141248409636318 0.00869603268802166 1.6653345369377348E-16
v -0.00315642054192721 0.0082251513376832 1.6653345369377348E-16
v -0.00493237003684043 0.00729985116049647 1.6653345369377348E-16
v -0.00880999956279993 1.0200174038743626E-15 -0.05999999865889549
v -0.00859609618782997 -0.00192956556566059 -0.05999999865889549
v -0.00802008341997861 -0.00364614254795014 -0.05999999865889549
v -0.00699578830972313 -0.00535490829497575 0
v -0.00699578830972313 -0.00535490829497575 -0.05999999865889549
v -0.0056565380655229 -0.00675423396751284 -0.05999999865889549
v -0.00405793963000178 -0.00781979691237211 -0.05999999865889549
v -0.00231840438209474 -0.00849947612732648 -0.05999999865889549
v -0.0005266664084047 -0.00879424344748258 -0.05999999865889549
v 0.00142371701076626 -0.00869420077651739 -0.05999999865889549
v 0.00316712656058371 -0.0082210348919034 -0.05999999865889549
v 0.0049416827969253 -0.00729354983195662 -0.05999999865889549
v 0.0062296106480062 -0.0062296106480062 -0.05999999865889549
v 0.00743855768814683 -0.00472058914601802 -1.1102230246251565E-16
v 0.00743855768814683 -0.00472058914601802 -0.05999999865889549
v 0.0082740793004632 -0.00302584143355488 -0.05999999865889549
v 0.00872157327830791 -0.00124509702436625 -0.05999999865889549
v 0.00878532603383064 0.00065889523830264 -0.05999999865889549
v 0.00841191876679658 0.00261834287084639 -0.05999999865889549
v 0.00759546179324388 0.00446374900639057 -0.05999999865889549
v 0.00640846183523535 0.00604547094553709 -0.05999999865889549
v 0.00566228758543729 0.00674941483885049 -0.05999999865889549
v 0.00406767986714839 0.00781473517417907 -0.05999999865889549
v 0.00232866639271378 0.00849667098373174 -0.05999999865889549
v 0.00053699658019468 0.00879361853003501 -0.05999999865889549
v -0.00141248409636318 0.00869603268802166 -0.05999999865889549
v -0.00315642054192721 0.0082251513376832 -0.05999999865889549
v -0.00493237003684043 0.00729985116049647 -0.05999999865889549
v -0.0062296106480062 0.0062296106480062 -0.05999999865889549
v -0.00743858888745307 0.00472053932026028 1.1102230246251565E-16
v -0.00743858888745307 0.00472053932026028 -0.05999999865889549
v -0.00827409885823726 0.00302578811533749 -0.05999999865889549
v -0.00872158072888851 0.001245042309165 -0.05999999865889549
v -0.00999999977648258 1.0191500421363742E-15 -0.05999999865889549
# 128 vertices

vn -0.99463605880737312 -0.1034364476799965 6.19866884668638E-15
vn -0.95418536663055424 -0.2992161512374878 2.5468084791021054E-15
vn -0.8742538690567016 -0.48546904325485232 -1.2589427401634616E-15
vn -0.75399565696716304 -0.65687942504882816 -5.134985200315164E-15
vn -0.60337585210800168 -0.79745692014694208 -8.729761264726892E-15
vn -0.42955207824707032 -0.90304207801818848 -1.1915298866386863E-14
vn -0.24265819787979124 -0.97011184692382816 -1.4550635205729488E-14
vn -0.04530047625303268 -0.99897342920303344 -1.6620143371910874E-14
vn 0.16107073426246644 -0.98694288730621344 -1.806659443088273E-14
vn 0.36629855632781984 -0.930497407913208 -1.8748843894512285E-14
vn 0.55523842573165896 -0.83169120550155632 -1.8580658726571365E-14
vn 0.7071067690849304 -0.7071067690849304 -1.767766908875555E-14
vn 0.8298496007919312 -0.55798715353012088 -1.6124578275790273E-14
vn 0.9251341223716736 -0.37964040040969848 -1.3854960269885953E-14
vn 0.98164814710617072 -0.19070105254650116 -1.1095103311033368E-14
vn 1 -2.0272009748135118E-17 -8.00000002901995E-15
vn 0.98189312219619744 0.18943585455417632 -4.634735164963299E-15
vn 0.92329460382461552 0.38409256935119632 -8.567830376310262E-16
vn 0.8211864233016968 0.57065999507904056 3.1317283513779834E-15
vn 0.68484181165695192 0.728691816329956 6.909026251637621E-15
vn 0.52174675464630128 0.85310041904449456 1.0328733311346094E-14
vn 0.34040978550910948 0.94027715921401984 1.3261434119349498E-14
vn 0.15028801560401916 0.98864227533340448 1.5604613548591065E-14
vn -0.05045555531978607 0.99872630834579472 1.7381991909725704E-14
vn -0.24859198927879332 0.96860831975936896 1.8455077621811443E-14
vn -0.43903544545173648 0.89846974611282352 1.878626919825377E-14
vn -0.61828058958053592 0.78595745563507088 1.8307521094267955E-14
vn -0.71670812368392944 0.69737327098846432 1.7589010150166444E-14
vn -0.8011415600776672 0.59847491979599 1.658320595914701E-14
vn -0.90552371740341184 0.42429566383361816 1.445721594197681E-14
vn -0.97147160768508912 0.2371560037136078 1.180342444877941E-14
vn -0.99750465154647824 0.07060104608535767 9.180254890691145E-15
vn 8.00000002901995E-15 -1.700000037930475E-14 1
vn 0.99391156435012816 0.11018078029155732 -6.078219067520924E-15
vn 0.9480484127998352 0.31812611222267152 -2.176242999623137E-15
vn 0.85770642757415776 0.5141397714614868 1.8787252179989057E-15
vn 0.72244459390640256 0.69142884016036984 5.974733240706603E-15
vn 0.55463916063308712 0.83209097385406496 9.708433296379878E-15
vn 0.36393100023269656 0.93142592906951904 1.2922792041103123E-14
vn 0.16233263909816742 0.98673611879348752 1.547585268214715E-14
vn -0.05122650414705276 0.99868708848953248 1.7387492541685173E-14
vn -0.26192727684974672 0.96508759260177616 1.850190837939924E-14
vn -0.46320560574531552 0.88625085353851312 1.877190860166602E-14
vn -0.63688099384307864 0.77096211910247808 1.8201404806635936E-14
vn -0.7804322242736816 0.62524038553237912 1.6872543943599605E-14
vn -0.8969221711158752 0.44218844175338744 1.4692580987030364E-14
vn -0.96984601020812992 0.24371844530105592 1.190198181439013E-14
vn -0.9994398951530456 0.03346497192978859 8.564423821554642E-15
vn -0.98232203722000128 -0.18719877302646636 4.676197427731397E-15
vn -0.91449505090713504 -0.40459704399108888 4.378107104774381E-16
vn -0.7998279929161072 -0.60022926330566408 -3.805273492683316E-15
vn -0.68622350692749024 -0.72739076614379888 -6.8758551708737216E-15
vn -0.55551165342330936 -0.83150875568389888 -9.691555317872889E-15
vn -0.3650735020637512 -0.93097871541976928 -1.2906050434900642E-14
vn -0.1635073870420456 -0.98654210567474368 -1.5463157352333702E-14
vn 0.04999475553631783 -0.99874949455261232 -1.737869864562678E-14
vn 0.26067540049552916 -0.96542650461196896 -1.8497654579938128E-14
vn 0.46206265687942504 -0.88684725761413568 -1.877290471241199E-14
vn 0.63638895750045776 -0.77136832475662224 -1.8204372810083115E-14
vn 0.7804344296455384 -0.62523764371871952 -1.6872515144479398E-14
vn 0.89692497253417968 -0.44218274950981144 -1.4692506448131006E-14
vn 0.96984761953353888 -0.24371206760406496 -1.1901886099667091E-14
vn 0.99748778343200688 -0.0708383247256279 -9.184153783347356E-15
vn -8.00000002901995E-15 1.700000037930475E-14 -1
# 64 vertex normals

g obj_54034563
s 1
f 1//1 2//1 3//1
f 3//2 2//2 4//2
f 3//2 4//2 5//2
f 5//3 4//3 6//3
f 5//3 6//3 7//3
f 7//4 6//4 8//4
f 7//4 8//4 9//4
f 9//5 8//5 10//5
f 9//5 10//5 11//5
f 11//6 10//6 12//6
f 11//6 12//6 13//6
f 13//7 12//7 14//7
f 13//7 14//7 15//7
f 15//8 14//8 16//8
f 15//8 16//8 17//8
f 17//9 16//9 18//9
f 17//9 18//9 19//9
f 19//10 18//10 20//10
f 19//10 20//10 21//10
f 21//11 20//11 22//11
f 21//11 22//11 23//11
f 23//12 22//12 24//12
f 23//12 24//12 25//12
f 25//13 24//13 26//13
f 25//13 26//13 27//13
f 27//14 26//14 28//14
f 27//14 28//14 29//14
f 29//15 28//15 30//15
f 29//15 30//15 31//15
f 31//16 30//16 32//16
f 31//16 32//16 33//16
f 33//17 32//17 34//17
f 33//17 34//17 35//17
f 35//18 34//18 36//18
f 35//18 36//18 37//18
f 37//19 36//19 38//19
f 37//19 38//19 39//19
f 39//20 38//20 40//20
f 39//20 40//20 41//20
f 41//21 40//21 42//21
f 41//21 42//21 43//21
f 43//22 42//22 44//22
f 43//22 44//22 45//22
f 45//23 44//23 46//23
f 45//23 46//23 47//23
f 47//24 46//24 48//24
f 47//24 48//24 49//24
f 49//25 48//25 50//25
f 49//25 50//25 51//25
f 51//26 50//26 52//26
f 51//26 52//26 53//26
f 53//27 52//27 54//27
f 53//27 54//27 55//27
f 55//28 54//28 56//28
f 55//28 56//28 57//28
f 57//29 56//29 58//29
f 57//29 58//29 59//29
f 59//30 58//30 60//30
f 59//30 60//30 61//30
f 61//31 60//31 62//31
f 61//31 62//31 63//31
f 63//32 62//32 64//32
f 63//32 64//32 1//32
f 1//1 64//1 2//1
f 65//33 57//33 66//33
f 66//33 57//33 59//33
f 66//33 59//33 67//33
f 67//33 59//33 61//33
f 67//33 61//33 68//33
f 68//33 61//33 63//33
f 68//33 63//33 69//33
f 69//33 63//33 1//33
f 69//33 1//33 70//33
f 70//33 1//33 3//33
f 70//33 3//33 71//33
f 71//33 3//33 5//33
f 71//33 5//33 72//33
f 72//33 5//33 7//33
f 72//33 7//33 73//33
f 73//33 7//33 9//33
f 73//33 9//33 74//33
f 74//33 9//33 11//33
f 74//33 11//33 75//33
f 75//33 11//33 13//33
f 75//33 13//33 76//33
f 76//33 13//33 15//33
f 76//33 15//33 77//33
f 77//33 15//33 17//33
f 77//33 17//33 78//33
f 78//33 17//33 19//33
f 78//33 19//33 79//33
f 19//33 21//33 79//33
f 79//33 21//33 23//33
f 79//33 23//33 80//33
f 80//33 23//33 25//33
f 80//33 25//33 81//33
f 81//33 25//33 27//33
f 81//33 27//33 82//33
f 82//33 27//33 29//33
f 82//33 29//33 83//33
f 83//33 29//33 31//33
f 83//33 31//33 84//33
f 84//33 31//33 33//33
f 84//33 33//33 85//33
f 85//33 33//33 35//33
f 85//33 35//33 86//33
f 86//33 35//33 37//33
f 86//33 37//33 87//33
f 87//33 37//33 39//33
f 87//33 39//33 88//33
f 88//33 39//33 41//33
f 88//33 41//33 89//33
f 89//33 41//33 43//33
f 89//33 43//33 90//33
f 90//33 43//33 45//33
f 90//33 45//33 91//33
f 91//33 45//33 47//33
f 91//33 47//33 92//33
f 92//33 47//33 49//33
f 92//33 49//33 93//33
f 93//33 49//33 51//33
f 93//33 51//33 94//33
f 94//33 51//33 53//33
f 94//33 53//33 65//33
f 65//33 53//33 55//33
f 65//33 55//33 57//33
f 95//34 70//34 96//34
f 96//35 70//35 71//35
f 96//35 71//35 97//35
f 97//36 71//36 98//36
f 97//36 98//36 99//36
f 99//37 98//37 73//37
f 99//37 73//37 100//37
f 100//38 73//38 74//38
f 100//38 74//38 101//38
f 101//39 74//39 75//39
f 101//39 75//39 102//39
f 102//40 75//40 76//40
f 102//40 76//40 103//40
f 103//41 76//41 77//41
f 103//41 77//41 104//41
f 104//42 77//42 78//42
f 104//42 78//42 105//42
f 105//43 78//43 79//43
f 105//43 79//43 106//43
f 106//44 79//44 80//44
f 106//44 80//44 107//44
f 107//45 80//45 108//45
f 107//45 108//45 109//45
f 109//46 108//46 82//46
f 109//46 82//46 110//46
f 110//47 82//47 83//47
f 110//47 83//47 111//47
f 111//48 83//48 84//48
f 111//48 84//48 112//48
f 112//49 84//49 85//49
f 112//49 85//49 113//49
f 113//50 85//50 86//50
f 113//50 86//50 114//50
f 114//51 86//51 87//51
f 114//51 87//51 115//51
f 115//52 87//52 88//52
f 115//52 88//52 116//52
f 116//53 88//53 89//53
f 116//53 89//53 117//53
f 117//54 89//54 90//54
f 117//54 90//54 118//54
f 118//55 90//55 91//55
f 118//55 91//55 119//55
f 119//56 91//56 92//56
f 119//56 92//56 120//56
f 120//57 92//57 93//57
f 120//57 93//57 121//57
f 121//58 93//58 94//58
f 121//58 94//58 122//58
f 122//59 94//59 65//59
f 122//59 65//59 123//59
f 123//60 65//60 124//60
f 123//60 124//60 125//60
f 125//61 124//61 67//61
f 125//61 67//61 126//61
f 126//62 67//62 68//62
f 126//62 68//62 127//62
f 127//63 68//63 69//63
f 127//63 69//63 95//63
f 95//34 69//34 70//34
f 125//64 56//64 123//64
f 123//64 56//64 54//64
f 123//64 54//64 122//64
f 122//64 54//64 52//64
f 122//64 52//64 121//64
f 121//64 52//64 50//64
f 121//64 50//64 120//64
f 120//64 50//64 48//64
f 120//64 48//64 119//64
f 119//64 48//64 46//64
f 119//64 46//64 118//64
f 118//64 46//64 44//64
f 118//64 44//64 117//64
f 117//64 44//64 42//64
f 117//64 42//64 116//64
f 116//64 42//64 40//64
f 116//64 40//64 115//64
f 115//64 40//64 38//64
f 115//64 38//64 114//64
f 114//64 38//64 36//64
f 114//64 36//64 113//64
f 113//64 36//64 34//64
f 113//64 34//64 112//64
f 112//64 34//64 32//64
f 112//64 32//64 111//64
f 111//64 32//64 30//64
f 111//64 30//64 110//64
f 110//64 30//64 28//64
f 110//64 28//64 109//64
f 109//64 28//64 26//64
f 109//64 26//64 107//64
f 107//64 26//64 24//64
f 107//64 24//64 106//64
f 24//64 22//64 106//64
f 106//64 22//64 20//64
f 106//64 20//64 105//64
f 105//64 20//64 18//64
f 105//64 18//64 104//64
f 104//64 18//64 16//64
f 104//64 16//64 103//64
f 103//64 16//64 14//64
f 103//64 14//64 102//64
f 102//64 14//64 12//64
f 102//64 12//64 101//64
f 101//64 12//64 10//64
f 101//64 10//64 100//64
f 100//64 10//64 8//64
f 100//64 8//64 99//64
f 99//64 8//64 6//64
f 99//64 6//64 97//64
f 97//64 6//64 4//64
f 97//64 4//64 96//64
f 96//64 4//64 2//64
f 96//64 2//64 95//64
f 95//64 2//64 128//64
f 95//64 128//64 127//64
f 127//64 128//64 62//64
f 127//64 62//64 126//64
f 126//64 62//64 60//64
f 126//64 60//64 125//64
f 125//64 60//64 58//64
f 125//64 58//64 56//64
#248 polygons

