# Aspose.3D Wavefront OBJ Exporter
# Copyright 2004-2023 Aspose Pty Ltd.
# File created: 5/11/2023 10:03:11 AM


#
# object obj_53681888
#

v -0.00999999977648258 1.3877787807814457E-17 -0.0020000000949949
v -0.00981462188065052 -0.00191655987873673 -0.05200000107288361
v -0.00981462188065052 -0.00191655987873673 -0.0020000000949949
v -0.00931339990347623 -0.0036415085196495 -0.05200000107288361
v -0.00931339990347623 -0.0036415085196495 -0.0020000000949949
v -0.00841473042964935 -0.005402990616858 -0.05200000107288361
v -0.00841473042964935 -0.005402990616858 -0.0020000000949949
v -0.00720573915168643 -0.00693378131836652 -0.05200000107288361
v -0.00720573915168643 -0.00693378131836652 -0.0020000000949949
v -0.00665167393162846 -0.00746694300323724 -0.05200000107288361
v -0.00665167393162846 -0.00746694300323724 -0.0020000000949949
v -0.00511134881526231 -0.00859500467777252 -0.05200000107288361
v -0.00511134881526231 -0.00859500467777252 -0.0020000000949949
v -0.00341928051784634 -0.00939726177603006 -0.05200000107288361
v -0.00341928051784634 -0.00939726177603006 -0.0020000000949949
v -0.00164753850549459 -0.00986334681510925 -0.05200000107288361
v -0.00164753850549459 -0.00986334681510925 -0.0020000000949949
v -1.3010426069826053E-15 -0.00999999977648258 -0.05200000107288361
v -5.0306980803327406E-17 -0.00999999977648258 -0.0020000000949949
v 0.001894211047329 -0.0098189590498805 -0.05200000107288361
v 0.001894211047329 -0.0098189590498805 -0.0020000000949949
v 0.00362017308361828 -0.00932171382009983 -0.05200000107288361
v 0.00362017308361828 -0.00932171382009983 -0.0020000000949949
v 0.00538399675861001 -0.00842689629644155 -0.05200000107288361
v 0.00538399675861001 -0.00842689629644155 -0.0020000000949949
v 0.00691775139421224 -0.00722113018855452 -0.05200000107288361
v 0.00691775139421224 -0.00722113018855452 -0.0020000000949949
v 0.00751108629629015 -0.00660178670659661 -0.05200000107288361
v 0.00751108629629015 -0.00660178670659661 -0.0020000000949949
v 0.00862842611968517 -0.00505472719669342 -0.05200000107288361
v 0.00862842611968517 -0.00505472719669342 -0.0020000000949949
v 0.00941905099898576 -0.00335879158228635 -0.05200000107288361
v 0.00941905099898576 -0.00335879158228635 -0.0020000000949949
v 0.00987351778894662 -0.00158544606529176 -0.05200000107288361
v 0.00987351778894662 -0.00158544606529176 -0.0020000000949949
v 0.00999553501605987 0.0002987903426401317 -0.05200000107288361
v 0.00999553501605987 0.0002987903426401317 -0.0020000000949949
v 0.00975179206579923 0.00221417169086635 -0.05200000107288361
v 0.00975179206579923 0.00221417169086635 -0.0020000000949949
v 0.0091975862160325 0.00392484571784734 -0.05200000107288361
v 0.0091975862160325 0.00392484571784734 -0.0020000000949949
v 0.00824799761176109 0.00565424980595707 -0.05200000107288361
v 0.00824799761176109 0.00565424980595707 -0.0020000000949949
v 0.00707106757909059 0.00707106757909059 -0.05200000107288361
v 0.00707106757909059 0.00707106757909059 -0.0020000000949949
v 0.00558972032740712 0.00829186476767063 -0.05200000107288361
v 0.00558972032740712 0.00829186476767063 -0.0020000000949949
v 0.00393418781459331 0.00919359363615512 -0.05200000107288361
v 0.00393418781459331 0.00919359363615512 -0.0020000000949949
v 0.00217936025001108 0.00975963100790977 -0.05200000107288361
v 0.00217936025001108 0.00975963100790977 -0.0020000000949949
v 0.00038973530172370374 0.00999240204691886 -0.05200000107288361
v 0.00038973530172370374 0.00999240204691886 -0.0020000000949949
v -0.00118466361891478 0.00992958061397075 -0.05200000107288361
v -0.00118466361891478 0.00992958061397075 -0.0020000000949949
v -0.0029377257451415 0.00955875311046838 -0.05200000107288361
v -0.0029377257451415 0.00955875311046838 -0.0020000000949949
v -0.00477116694673895 0.00878839939832687 -0.05200000107288361
v -0.00477116694673895 0.00878839939832687 -0.0020000000949949
v -0.00639495998620987 0.00768794445320963 -0.05200000107288361
v -0.00639495998620987 0.00768794445320963 -0.0020000000949949
v -0.00768794445320963 0.00639495998620987 -0.05200000107288361
v -0.00768794445320963 0.00639495998620987 -0.0020000000949949
v -0.00876220781356096 0.0048190988600254 -0.05200000107288361
v -0.00876220781356096 0.0048190988600254 -0.0020000000949949
v -0.00950473174452781 0.00310806487686932 -0.05200000107288361
v -0.00950473174452781 0.00310806487686932 -0.0020000000949949
v -0.0099113080650568 0.00132890127133578 -0.05200000107288361
v -0.0099113080650568 0.00132890127133578 -0.0020000000949949
v -0.00999999977648258 2.636779683484747E-16 -0.05200000107288361
v -0.00880999956279993 2.636779683484747E-16 -0.05200000107288361
v -0.00862467661499977 -0.00179751205723732 -0.0020000000949949
v -0.00862467661499977 -0.00179751205723732 -0.05200000107288361
v -0.00812453124672174 -0.00340706598944962 -0.0020000000949949
v -0.00812453124672174 -0.00340706598944962 -0.05200000107288361
v -0.00723079359158873 -0.005033063236624 -0.0020000000949949
v -0.00723079359158873 -0.005033063236624 -0.05200000107288361
v -0.0062296106480062 -0.0062296106480062 -0.0020000000949949
v -0.0062296106480062 -0.0062296106480062 -0.05200000107288361
v -0.00483317719772458 -0.00736590102314949 -0.0020000000949949
v -0.00483317719772458 -0.00736590102314949 -0.05200000107288361
v -0.00326825701631605 -0.00818135682493448 -0.0020000000949949
v -0.00326825701631605 -0.00818135682493448 -0.05200000107288361
v -0.00161529798060655 -0.00866065267473459 -0.0020000000949949
v -0.00161529798060655 -0.00866065267473459 -0.05200000107288361
v -5.0306980803327406E-17 -0.00880999956279993 -0.0020000000949949
v -1.2993078835066285E-15 -0.00880999956279993 -0.05200000107288361
v 0.00177218962926417 -0.00862991530448198 -0.0020000000949949
v 0.00177218962926417 -0.00862991530448198 -0.05200000107288361
v 0.00338304624892771 -0.00813456159085035 -0.0020000000949949
v 0.00338304624892771 -0.00813456159085035 -0.05200000107288361
v 0.00501203769817948 -0.00724538322538137 -0.0020000000949949
v 0.00501203769817948 -0.00724538322538137 -0.05200000107288361
v 0.0062296106480062 -0.0062296106480062 -0.0020000000949949
v 0.0062296106480062 -0.0062296106480062 -0.05200000107288361
v 0.00736596481874585 -0.00483307987451553 -0.0020000000949949
v 0.00736596481874585 -0.00483307987451553 -0.05200000107288361
v 0.00818139873445034 -0.00326815154403448 -0.0020000000949949
v 0.00818139873445034 -0.00326815154403448 -0.05200000107288361
v 0.00866067316383123 -0.00161518901586532 -0.0020000000949949
v 0.00866067316383123 -0.00161518901586532 -0.05200000107288361
v 0.00880999956279993 6.938893903907228E-18 -0.0020000000949949
v 0.00880999956279993 2.5673907444456745E-16 -0.05200000107288361
v 0.0086299143731594 0.00177219486795365 -0.0020000000949949
v 0.0086299143731594 0.00177219486795365 -0.05200000107288361
v 0.0081345597282052 0.00338305137120187 -0.0020000000949949
v 0.0081345597282052 0.00338305137120187 -0.05200000107288361
v 0.00724537996575236 0.00501204235479235 -0.0020000000949949
v 0.00724537996575236 0.00501204235479235 -0.05200000107288361
v 0.0062296106480062 0.0062296106480062 -0.0020000000949949
v 0.0062296106480062 0.0062296106480062 -0.05200000107288361
v 0.00483307987451553 0.00736596481874585 -0.0020000000949949
v 0.00483307987451553 0.00736596481874585 -0.05200000107288361
v 0.00326815154403448 0.00818139873445034 -0.0020000000949949
v 0.00326815154403448 0.00818139873445034 -0.05200000107288361
v 0.00161518901586532 0.00866067316383123 -0.0020000000949949
v 0.00161518901586532 0.00866067316383123 -0.05200000107288361
v -4.85722573273506E-17 0.00880999956279993 -0.0020000000949949
v -1.2993078835066285E-15 0.00880999956279993 -0.05200000107288361
v -0.00177219486795365 0.0086299143731594 -0.0020000000949949
v -0.00177219486795365 0.0086299143731594 -0.05200000107288361
v -0.00338305137120187 0.0081345597282052 -0.0020000000949949
v -0.00338305137120187 0.0081345597282052 -0.05200000107288361
v -0.00501204235479235 0.00724537996575236 -0.0020000000949949
v -0.00501204235479235 0.00724537996575236 -0.05200000107288361
v -0.0062296106480062 0.0062296106480062 -0.0020000000949949
v -0.0062296106480062 0.0062296106480062 -0.05200000107288361
v -0.00736596481874585 0.00483307987451553 -0.0020000000949949
v -0.00736596481874585 0.00483307987451553 -0.05200000107288361
v -0.00818139873445034 0.00326815154403448 -0.0020000000949949
v -0.00818139873445034 0.00326815154403448 -0.05200000107288361
v -0.00866067316383123 0.00161518901586532 -0.0020000000949949
v -0.00866067316383123 0.00161518901586532 -0.05200000107288361
v -0.00880999956279993 1.3877787807814457E-17 -0.0020000000949949
v -0.00999999977648258 6.938893903907228E-18 -0.0020000000949949
# 135 vertices

vn -0.99535477161407472 -0.0962749868631363 2.4402494049969095E-14
vn -0.96028202772140496 -0.27903118729591368 2.261189519859371E-14
vn -0.89077126979827888 -0.45445191860198976 1.9997021481190855E-14
vn -0.7847650051116944 -0.61979341506958008 1.6520157908751082E-14
vn -0.69338345527648928 -0.72056877613067624 1.3731743234081818E-14
vn -0.59084922075271608 -0.8067820072174072 1.073731998224494E-14
vn -0.42841389775276184 -0.90358263254165648 6.192434260678115E-15
vn -0.25441014766693116 -0.96709638833999632 1.5247719604397254E-15
vn -0.08265986293554306 -0.99657779932022096 -2.916392459153443E-15
vn 0.09514223039150238 -0.99546366930007936 -7.355874671313364E-15
vn 0.27683764696121216 -0.96091669797897344 -1.1725524522686326E-14
vn 0.45242613554000856 -0.89180189371109008 -1.576966300056125E-14
vn 0.61803489923477176 -0.78615069389343264 -1.9381624939956293E-14
vn 0.72210621833801264 -0.6917822360992432 -2.1511565518792485E-14
vn 0.81067448854446416 -0.58549714088439944 -2.3194347240377763E-14
vn 0.90634930133819584 -0.42252919077873232 -2.4771378592564237E-14
vn 0.96869504451751712 -0.24825377762317656 -2.5458644185307432E-14
vn 0.99790984392166144 -0.06462150812149048 -2.5270853592769364E-14
vn 0.99200004339218144 0.12623752653598786 -2.4168812906414684E-14
vn 0.95132189989089968 0.30819907784461976 -2.2242051814702277E-14
vn 0.87655460834503168 0.48130238056182864 -1.9507353428449038E-14
vn 0.76922202110290528 0.63898158073425296 -1.603564320446036E-14
vn 0.63597548007965088 0.7717092633247376 -1.2040840160598264E-14
vn 0.47832512855529784 0.87818282842636112 -7.567214473850996E-15
vn 0.306985080242157 0.9517143368721008 -2.9160553400404358E-15
vn 0.12898050248622894 0.99164712429046624 1.7337230241869814E-15
vn -0.03987012431025505 0.99920487403869632 5.992777583581962E-15
vn -0.20695188641548156 0.97835111618042 1.0065552551337658E-14
vn -0.38736429810523984 0.92192673683166496 1.429374197128852E-14
vn -0.561011016368866 0.82780832052230832 1.816431662200746E-14
vn -0.7071067690849304 0.7071067690849304 2.121320324531984E-14
vn -0.82627308368682864 0.56326973438262936 2.347317524002083E-14
vn -0.91734504699707024 0.39809301495552064 2.492409185669061E-14
vn -0.974869191646576 0.22277812659740448 2.5485620490611587E-14
vn -0.99778026342391968 0.06659248471260071 2.527746892008742E-14
vn 0.99472725391387936 0.10255607217550278 -2.435540071216765E-14
vn 0.95495849847793584 0.296739399433136 -2.2390265639812834E-14
vn 0.87634348869323728 0.48168668150901792 -1.9500153648397377E-14
vn 0.76693987846374512 0.64171892404556272 -1.596490240083747E-14
vn 0.63115727901458744 0.77565485239028928 -1.1900657901893572E-14
vn 0.4621096849441528 0.88682276010513312 -7.11862836608396E-15
vn 0.27849107980728148 0.96043878793716432 -2.160082881538946E-15
vn 0.09206512570381164 0.99575299024581904 2.6771367800149147E-15
vn -0.10109619051218032 0.99487668275833136 7.501787954939179E-15
vn -0.29392620921134948 0.9558281302452088 1.2127295966491564E-14
vn -0.47911688685417176 0.87775111198425296 1.6366677232774497E-14
vn -0.64060431718826296 0.76787114143371584 1.985446414210206E-14
vn -0.77565902471542352 0.63115215301513672 2.2547237785598E-14
vn -0.88682883977890016 0.46209803223609928 2.4481210515823332E-14
vn -0.96044230461120608 0.27847903966903688 2.5403453212530236E-14
vn -0.99575358629226688 0.09205875545740128 2.5354133872143407E-14
vn -0.99487662315368656 -0.10109641402959824 2.4366434163338585E-14
vn -0.9558279514312744 -0.29392674565315248 2.242606464029559E-14
vn -0.87775075435638432 -0.47911757230758664 1.9548180416506696E-14
vn -0.76787096261978144 -0.64060455560684208 1.5993752343020952E-14
vn -0.63115215301513672 -0.77565902471542352 1.1900508824094855E-14
vn -0.46209803223609928 -0.88682883977890016 7.118306493564003E-15
vn -0.27847903966903688 -0.96044230461120608 2.159764820667252E-15
vn -0.09205875545740128 -0.99575358629226688 -2.677298986824314E-15
vn 0.10109641402959824 -0.99487662315368656 -7.50179388416981E-15
vn 0.29392674565315248 -0.9558279514312744 -1.2127308671985772E-14
vn 0.47911757230758664 -0.87775075435638432 -1.6366692479367548E-14
vn 0.64060455560684208 -0.76787096261978144 -1.985446753023385E-14
vn 0.77565902471542352 -0.63115215301513672 -2.2547237785598E-14
vn 0.88682883977890016 -0.46209803223609928 -2.4481210515823332E-14
vn 0.96044230461120608 -0.27847903966903688 -2.5403453212530236E-14
vn 0.99575358629226688 -0.09205875545740128 -2.5354133872143407E-14
vn -2.499999956129175E-14 4.99999991225835E-15 -1
vn 2.499999956129175E-14 -4.99999991225835E-15 1
# 69 vertex normals

g obj_53681888
s 1
f 1//1 2//1 3//1
f 3//2 2//2 4//2
f 3//2 4//2 5//2
f 5//3 4//3 6//3
f 5//3 6//3 7//3
f 7//4 6//4 8//4
f 7//4 8//4 9//4
f 9//5 8//5 10//5
f 9//5 10//5 11//5
f 11//6 10//6 12//6
f 11//6 12//6 13//6
f 13//7 12//7 14//7
f 13//7 14//7 15//7
f 15//8 14//8 16//8
f 15//8 16//8 17//8
f 17//9 16//9 18//9
f 17//9 18//9 19//9
f 19//10 18//10 20//10
f 19//10 20//10 21//10
f 21//11 20//11 22//11
f 21//11 22//11 23//11
f 23//12 22//12 24//12
f 23//12 24//12 25//12
f 25//13 24//13 26//13
f 25//13 26//13 27//13
f 27//14 26//14 28//14
f 27//14 28//14 29//14
f 29//15 28//15 30//15
f 29//15 30//15 31//15
f 31//16 30//16 32//16
f 31//16 32//16 33//16
f 33//17 32//17 34//17
f 33//17 34//17 35//17
f 35//18 34//18 36//18
f 35//18 36//18 37//18
f 37//19 36//19 38//19
f 37//19 38//19 39//19
f 39//20 38//20 40//20
f 39//20 40//20 41//20
f 41//21 40//21 42//21
f 41//21 42//21 43//21
f 43//22 42//22 44//22
f 43//22 44//22 45//22
f 45//23 44//23 46//23
f 45//23 46//23 47//23
f 47//24 46//24 48//24
f 47//24 48//24 49//24
f 49//25 48//25 50//25
f 49//25 50//25 51//25
f 51//26 50//26 52//26
f 51//26 52//26 53//26
f 53//27 52//27 54//27
f 53//27 54//27 55//27
f 55//28 54//28 56//28
f 55//28 56//28 57//28
f 57//29 56//29 58//29
f 57//29 58//29 59//29
f 59//30 58//30 60//30
f 59//30 60//30 61//30
f 61//31 60//31 62//31
f 61//31 62//31 63//31
f 63//32 62//32 64//32
f 63//32 64//32 65//32
f 65//33 64//33 66//33
f 65//33 66//33 67//33
f 67//34 66//34 68//34
f 67//34 68//34 69//34
f 69//35 68//35 70//35
f 69//35 70//35 1//35
f 1//1 70//1 2//1
f 71//36 72//36 73//36
f 73//37 72//37 74//37
f 73//37 74//37 75//37
f 75//38 74//38 76//38
f 75//38 76//38 77//38
f 77//39 76//39 78//39
f 77//39 78//39 79//39
f 79//40 78//40 80//40
f 79//40 80//40 81//40
f 81//41 80//41 82//41
f 81//41 82//41 83//41
f 83//42 82//42 84//42
f 83//42 84//42 85//42
f 85//43 84//43 86//43
f 85//43 86//43 87//43
f 87//44 86//44 88//44
f 87//44 88//44 89//44
f 89//45 88//45 90//45
f 89//45 90//45 91//45
f 91//46 90//46 92//46
f 91//46 92//46 93//46
f 93//47 92//47 94//47
f 93//47 94//47 95//47
f 95//48 94//48 96//48
f 95//48 96//48 97//48
f 97//49 96//49 98//49
f 97//49 98//49 99//49
f 99//50 98//50 100//50
f 99//50 100//50 101//50
f 101//51 100//51 102//51
f 101//51 102//51 103//51
f 103//52 102//52 104//52
f 103//52 104//52 105//52
f 105//53 104//53 106//53
f 105//53 106//53 107//53
f 107//54 106//54 108//54
f 107//54 108//54 109//54
f 109//55 108//55 110//55
f 109//55 110//55 111//55
f 111//56 110//56 112//56
f 111//56 112//56 113//56
f 113//57 112//57 114//57
f 113//57 114//57 115//57
f 115//58 114//58 116//58
f 115//58 116//58 117//58
f 117//59 116//59 118//59
f 117//59 118//59 119//59
f 119//60 118//60 120//60
f 119//60 120//60 121//60
f 121//61 120//61 122//61
f 121//61 122//61 123//61
f 123//62 122//62 124//62
f 123//62 124//62 125//62
f 125//63 124//63 126//63
f 125//63 126//63 127//63
f 127//64 126//64 128//64
f 127//64 128//64 129//64
f 129//65 128//65 130//65
f 129//65 130//65 131//65
f 131//66 130//66 132//66
f 131//66 132//66 133//66
f 133//67 132//67 134//67
f 133//67 134//67 71//67
f 71//36 134//36 72//36
f 97//68 28//68 95//68
f 95//68 28//68 26//68
f 95//68 26//68 93//68
f 93//68 26//68 24//68
f 93//68 24//68 91//68
f 91//68 24//68 22//68
f 91//68 22//68 89//68
f 89//68 22//68 20//68
f 89//68 20//68 87//68
f 87//68 20//68 18//68
f 87//68 18//68 85//68
f 85//68 18//68 16//68
f 85//68 16//68 83//68
f 83//68 16//68 14//68
f 83//68 14//68 81//68
f 123//68 56//68 121//68
f 121//68 56//68 54//68
f 121//68 54//68 119//68
f 119//68 54//68 52//68
f 119//68 52//68 117//68
f 117//68 52//68 50//68
f 117//68 50//68 115//68
f 115//68 50//68 48//68
f 115//68 48//68 113//68
f 113//68 48//68 46//68
f 113//68 46//68 111//68
f 111//68 46//68 44//68
f 111//68 44//68 109//68
f 109//68 44//68 42//68
f 109//68 42//68 107//68
f 107//68 42//68 40//68
f 107//68 40//68 105//68
f 105//68 40//68 38//68
f 105//68 38//68 103//68
f 103//68 38//68 36//68
f 103//68 36//68 101//68
f 101//68 36//68 34//68
f 101//68 34//68 99//68
f 99//68 34//68 32//68
f 99//68 32//68 97//68
f 97//68 32//68 30//68
f 97//68 30//68 28//68
f 14//68 12//68 81//68
f 81//68 12//68 10//68
f 81//68 10//68 79//68
f 79//68 10//68 8//68
f 79//68 8//68 77//68
f 77//68 8//68 6//68
f 77//68 6//68 75//68
f 75//68 6//68 4//68
f 75//68 4//68 73//68
f 73//68 4//68 2//68
f 73//68 2//68 71//68
f 71//68 2//68 70//68
f 71//68 70//68 133//68
f 133//68 70//68 68//68
f 133//68 68//68 131//68
f 131//68 68//68 66//68
f 131//68 66//68 129//68
f 129//68 66//68 64//68
f 129//68 64//68 127//68
f 127//68 64//68 62//68
f 127//68 62//68 125//68
f 125//68 62//68 60//68
f 125//68 60//68 123//68
f 123//68 60//68 58//68
f 123//68 58//68 56//68
f 78//69 11//69 80//69
f 80//69 11//69 13//69
f 80//69 13//69 82//69
f 82//69 13//69 15//69
f 82//69 15//69 84//69
f 84//69 15//69 17//69
f 84//69 17//69 86//69
f 86//69 17//69 19//69
f 86//69 19//69 88//69
f 88//69 19//69 21//69
f 88//69 21//69 90//69
f 90//69 21//69 23//69
f 90//69 23//69 92//69
f 92//69 23//69 25//69
f 92//69 25//69 94//69
f 122//69 59//69 124//69
f 124//69 59//69 61//69
f 124//69 61//69 126//69
f 126//69 61//69 63//69
f 126//69 63//69 128//69
f 128//69 63//69 65//69
f 128//69 65//69 130//69
f 130//69 65//69 67//69
f 130//69 67//69 132//69
f 132//69 67//69 69//69
f 132//69 69//69 134//69
f 134//69 69//69 135//69
f 134//69 135//69 72//69
f 72//69 135//69 3//69
f 72//69 3//69 74//69
f 74//69 3//69 5//69
f 74//69 5//69 76//69
f 76//69 5//69 7//69
f 76//69 7//69 78//69
f 78//69 7//69 9//69
f 78//69 9//69 11//69
f 25//69 27//69 94//69
f 94//69 27//69 29//69
f 94//69 29//69 96//69
f 96//69 29//69 31//69
f 96//69 31//69 98//69
f 98//69 31//69 33//69
f 98//69 33//69 100//69
f 100//69 33//69 35//69
f 100//69 35//69 102//69
f 102//69 35//69 37//69
f 102//69 37//69 104//69
f 104//69 37//69 39//69
f 104//69 39//69 106//69
f 106//69 39//69 41//69
f 106//69 41//69 108//69
f 108//69 41//69 43//69
f 108//69 43//69 110//69
f 110//69 43//69 45//69
f 110//69 45//69 112//69
f 112//69 45//69 47//69
f 112//69 47//69 114//69
f 114//69 47//69 49//69
f 114//69 49//69 116//69
f 116//69 49//69 51//69
f 116//69 51//69 118//69
f 118//69 51//69 53//69
f 118//69 53//69 120//69
f 120//69 53//69 55//69
f 120//69 55//69 122//69
f 122//69 55//69 57//69
f 122//69 57//69 59//69
#268 polygons

